<svg width="140" height="125" viewBox="0 0 140 125" fill="none" xmlns="http://www.w3.org/2000/svg">
<path d="M35 54.6875H105V41.333C98.8094 38.1104 94.5 31.4453 94.5 23.4375C94.5 12.6514 102.331 3.90625 112 3.90625C121.669 3.90625 129.5 12.6514 129.5 23.4375C129.5 31.4453 125.191 38.1104 119 41.333V54.6875H133C136.872 54.6875 140 58.1787 140 62.5C140 66.8213 136.872 70.3125 133 70.3125H77V83.667C83.1906 86.6699 87.5 93.5547 87.5 101.562C87.5 112.354 79.6688 121.094 70 121.094C60.3312 121.094 52.5 112.354 52.5 101.562C52.5 93.5547 56.8094 86.6699 63 83.667V70.3125H7C3.13469 70.3125 0 66.8213 0 62.5C0 58.1787 3.13469 54.6875 7 54.6875H21V41.333C14.8203 38.1104 10.5 31.4453 10.5 23.4375C10.5 12.6514 18.3356 3.90625 28 3.90625C37.6688 3.90625 45.5 12.6514 45.5 23.4375C45.5 31.4453 41.1906 38.1104 35 41.333V54.6875ZM28 29.2969C30.9094 29.2969 33.25 26.6846 33.25 23.4375C33.25 20.2026 30.9094 17.5781 28 17.5781C25.0906 17.5781 22.75 20.2026 22.75 23.4375C22.75 26.6846 25.0906 29.2969 28 29.2969ZM112 17.5781C109.091 17.5781 106.75 20.2026 106.75 23.4375C106.75 26.6846 109.091 29.2969 112 29.2969C114.909 29.2969 117.25 26.6846 117.25 23.4375C117.25 20.2026 114.909 17.5781 112 17.5781ZM70 107.422C72.9094 107.422 75.25 104.81 75.25 101.562C75.25 98.3154 72.9094 95.7031 70 95.7031C67.0906 95.7031 64.75 98.3154 64.75 101.562C64.75 104.81 67.0906 107.422 70 107.422Z" fill="#3A6EA5"/>
</svg>
